<mxfile host="app.diagrams.net" modified="2024-06-27T15:58:03.270Z" agent="Mozilla/5.0 (X11; Linux x86_64) AppleWebKit/537.36 (KHTML, like Gecko) Chrome/126.0.0.0 Safari/537.36" etag="dyTJ7gB3C3q4qWni9Gj0" version="24.6.3" type="github">
  <diagram name="Page-1" id="CVbX2JemPOA_znY7fvwZ">
    <mxGraphModel dx="2314" dy="1180" grid="1" gridSize="10" guides="1" tooltips="1" connect="1" arrows="1" fold="1" page="1" pageScale="1" pageWidth="850" pageHeight="1100" math="0" shadow="0">
      <root>
        <mxCell id="0" />
        <mxCell id="1" parent="0" />
      </root>
    </mxGraphModel>
  </diagram>
</mxfile>
